<svg width="50" height="50" viewBox="0 0 50 50" fill="none" xmlns="http://www.w3.org/2000/svg">
<path id="vk" d="M19.7687 0.00734863L21.2875 0.00109863H28.7125L30.2333 0.00734863L32.1375 0.028182L33.0396 0.0427653L33.9104 0.065682L34.75 0.0948486L35.5583 0.128182L36.3375 0.171932L37.0875 0.224015L37.8062 0.286515L38.5 0.355265C42.125 0.763599 44.6104 1.6386 46.4854 3.5136C48.3604 5.3886 49.2354 7.87193 49.6437 11.499L49.7146 12.1928L49.775 12.9136L49.8271 13.6636L49.8687 14.4407L49.9208 15.6657L49.9458 16.5198L49.9729 17.8615L49.9917 19.7678L50 21.8094L49.9979 28.7115L49.9917 30.2323L49.9708 32.1365L49.9562 33.0386L49.9333 33.9094L49.9042 34.749L49.8708 35.5574L49.8271 36.3365L49.775 37.0865L49.7125 37.8053L49.6437 38.499C49.2354 42.124 48.3604 44.6094 46.4854 46.4844C44.6104 48.3594 42.1271 49.2344 38.5 49.6428L37.8062 49.7136L37.0854 49.774L36.3354 49.8261L35.5583 49.8678L34.3333 49.9198L33.4792 49.9449L32.1375 49.9719L30.2312 49.9907L28.1896 49.999L21.2875 49.9969L19.7667 49.9907L17.8625 49.9698L16.9604 49.9553L16.0896 49.9324L15.25 49.9032L14.4417 49.8698L13.6625 49.8261L12.9125 49.774L12.1937 49.7115L11.5 49.6428C7.875 49.2344 5.38958 48.3594 3.51458 46.4844C1.63958 44.6094 0.764583 42.1261 0.35625 38.499L0.285417 37.8053L0.225 37.0844L0.172917 36.3344L0.13125 35.5574L0.0791667 34.3323L0.0541667 33.4782L0.0270833 32.1365L0.00833333 30.2303L0 28.1886L0.00208333 21.2865L0.00833333 19.7657L0.0291667 17.8615L0.04375 16.9594L0.0666667 16.0886L0.0958333 15.249L0.129167 14.4407L0.172917 13.6615L0.225 12.9115L0.2875 12.1928L0.35625 11.499C0.764583 7.87401 1.63958 5.3886 3.51458 3.5136C5.38958 1.6386 7.87292 0.763599 11.5 0.355265L12.1937 0.284432L12.9146 0.224015L13.6646 0.171932L14.4417 0.130265L15.6667 0.078182L16.5208 0.053182L17.8625 0.0260986L19.7687 0.00734863ZM14.1458 15.2073H8.4375C8.70833 28.2073 15.2083 36.0199 26.6042 36.0199H27.25V28.5823C31.4375 28.999 34.6042 32.0615 35.875 36.0199H41.7917C40.1667 30.1032 35.8958 26.8323 33.2292 25.5823C35.8958 24.0407 39.6458 20.2907 40.5417 15.2073H35.1667C34 19.3323 30.5417 23.0823 27.25 23.4365V15.2073H21.875V29.624C18.5417 28.7907 14.3333 24.749 14.1458 15.2073Z" fill="#E4E4E4"/>
</svg>
