<svg width="26" height="26" viewBox="0 0 26 26" fill="none" xmlns="http://www.w3.org/2000/svg">
<g id="copy" clip-path="url(#clip0_1310_50)">
<path id="Vector" d="M13 0C5.82098 0 0 5.82098 0 13C0 20.179 5.82098 26 13 26C20.179 26 26 20.179 26 13C26 5.82098 20.179 0 13 0ZM13 23.7946C7.03973 23.7946 2.20536 18.9603 2.20536 13C2.20536 7.03973 7.03973 2.20536 13 2.20536C18.9603 2.20536 23.7946 7.03973 23.7946 13C23.7946 18.9603 18.9603 23.7946 13 23.7946ZM13.1625 8.33683C14.7004 8.33683 15.7451 9.31763 15.8612 10.7569C15.8699 10.8788 15.9714 10.9717 16.0933 10.9717H17.7386C17.8141 10.9717 17.875 10.9107 17.875 10.8353C17.875 8.31942 15.8902 6.55804 13.1538 6.55804C9.96473 6.55804 8.125 8.71116 8.125 12.2687V13.7864C8.125 17.3179 9.96473 19.442 13.1538 19.442C15.8815 19.442 17.875 17.7357 17.875 15.3388C17.875 15.2634 17.8141 15.2025 17.7386 15.2025H16.0904C15.9685 15.2025 15.8699 15.2953 15.8583 15.4143C15.7364 16.752 14.6946 17.6719 13.1596 17.6719C11.2647 17.6719 10.1969 16.2819 10.1969 13.7951V12.2687C10.1998 9.7442 11.2705 8.33683 13.1625 8.33683Z" fill="#E4E4E4"/>
</g>
<defs>
<clipPath id="clip0_1310_50">
<rect width="26" height="26" fill="white"/>
</clipPath>
</defs>
</svg>
